<?xml version="1.0" encoding="UTF-8" standalone="no"?>
<svg
   width="740px"
   height="680px"
   viewBox="0 0 740 680"
   version="1.1"
   id="svg59"
   sodipodi:docname="abouthero.svg"
   inkscape:version="1.2.1 (ef4d3fba62, 2022-07-19, custom)"
   xmlns:inkscape="http://www.inkscape.org/namespaces/inkscape"
   xmlns:sodipodi="http://sodipodi.sourceforge.net/DTD/sodipodi-0.dtd"
   xmlns="http://www.w3.org/2000/svg"
   xmlns:svg="http://www.w3.org/2000/svg"
   xmlns:rdf="http://www.w3.org/1999/02/22-rdf-syntax-ns#"
   xmlns:cc="http://creativecommons.org/ns#"
   xmlns:dc="http://purl.org/dc/elements/1.1/">
  <defs
     id="defs63" />
  <sodipodi:namedview
     id="namedview61"
     pagecolor="#ffffff"
     bordercolor="#000000"
     borderopacity="0.25"
     inkscape:showpageshadow="2"
     inkscape:pageopacity="0.0"
     inkscape:pagecheckerboard="0"
     inkscape:deskcolor="#d1d1d1"
     showgrid="false"
     inkscape:zoom="0.79117647"
     inkscape:cx="509.36803"
     inkscape:cy="325.46468"
     inkscape:window-width="1366"
     inkscape:window-height="704"
     inkscape:window-x="0"
     inkscape:window-y="27"
     inkscape:window-maximized="1"
     inkscape:current-layer="Scene/Plants" />
  <!-- Generator: Sketch 52.4 (67378) - http://www.bohemiancoding.com/sketch -->
  <title
     id="title18">Scene/Plants</title>
  <desc
     id="desc20">Created with Sketch.</desc>
  <g
     id="Scene/Plants"
     stroke="none"
     stroke-width="1"
     fill="none"
     fill-rule="evenodd">
    <g
       id="Background-Shape-2"
       opacity="0.504510789"
       transform="translate(55.000000, 337.000000)"
       fill="#F2F2F2">
      <path
         d="M630.159963,153.795486 C639.349631,222.535529 416.484537,267.372306 224.659384,236.0818 C32.8342312,204.791294 -55.1660535,82.5983388 36.3697112,17.4891288 C127.905476,-47.6200812 620.970294,85.0554431 630.159963,153.795486 Z"
         id="Background-Shape" />
    </g>
    <path
       d="M582.663291,177.553408 C587.699839,175.376482 594.096049,178.542571 591.028861,184.834517 C587.743478,191.572193 576.927275,191.090703 570.828432,190.634117 C571.441247,190.634117 573.740391,184.418162 574.464173,183.498604 C576.598736,180.785909 579.566802,178.894429 582.663291,177.553408 Z M519.628132,298.136439 C518.334132,299.130439 519.522132,298.230439 519.628132,298.136439 Z M585.75877,208.969059 C588.516388,211.315587 588.45021,215.199928 585.966044,217.701304 C583.008019,220.679131 577.9117,220.297969 574.11896,219.793933 C572.40333,219.565737 563.242692,218.347022 565.502104,216.955906 C565.33104,217.010448 564.972681,217.14586 564.586852,217.335188 C564.346489,218.061777 564.096137,218.785233 563.837044,219.504927 C563.889487,219.539407 563.933814,219.575768 563.990002,219.610248 C563.928819,219.579529 563.886365,219.547557 563.832674,219.516838 C561.237378,226.710016 557.723709,233.504479 553.259201,239.799293 C554.833735,239.272688 556.455716,238.896541 558.087063,238.776801 C562.918046,238.421343 572.818502,242.67995 567.115345,248.788572 C561.646932,254.644548 553.977793,247.652609 548.183485,246.440163 C542.102614,254.05149 535.457983,261.302971 528.52679,268.285507 C528.92136,268.432204 529.259741,268.712434 529.440169,269.130583 C532.136604,267.935691 534.973512,266.172817 537.431457,265.784132 C540.978215,265.2243 548.194723,265.150325 550.681387,268.42907 C553.739927,272.460735 550.080167,275.413486 546.188785,275.952003 C540.546186,276.733134 533.376503,273.620521 528.097883,271.494665 C527.477309,271.571148 526.815531,271.356118 526.440315,270.843304 C526.323567,270.798167 526.206819,270.753656 526.093193,270.710399 C519.080838,277.652813 511.827496,284.341327 504.624099,290.877503 C504.697144,290.877503 504.77019,290.876876 504.846357,290.876876 C506.692469,289.799843 508.657202,288.93972 510.758661,288.545393 C515.620236,287.626969 521.268453,287.917228 524.981905,291.594689 C528.680997,295.256477 529.738594,301.37701 525.520692,305.050082 C517.078022,312.402496 506.168041,294.057823 502.153667,293.105545 C494.837269,299.674319 487.145654,305.766642 479.345408,311.722297 C480.206969,311.50852 481.086635,311.364331 481.990025,311.326089 C489.349502,311.008872 506.066901,320.887111 496.617203,329.248851 C488.382431,336.535439 480.094592,321.245704 474.054926,315.733901 C466.707936,321.280811 459.324735,326.78509 452.128206,332.52885 C455.930935,331.729538 459.563225,331.772795 463.520161,333.198391 C467.614448,334.675393 474.162933,338.168542 471.238622,343.647745 C468.264364,349.219731 460.339254,346.19802 456.235603,344.16432 C453.997418,343.055314 449.580983,339.476279 445.623423,337.858848 C434.107228,347.643677 424.004492,358.556318 416.104355,371.621146 C411.172232,379.778513 407.293336,388.566553 404.410853,397.656764 C402.570984,403.458826 399.035464,413.180337 399.238368,420.868148 C397.161881,405.39222 403.333278,387.259443 409.660131,373.855457 C415.477538,361.529758 423.775367,350.876657 433.337442,341.397134 C431.426401,334.454721 412.846657,323.612293 424.594474,317.871041 C430.832049,314.836791 436.749347,320.724114 437.765739,326.684158 C438.463728,330.779768 436.810531,335.793176 435.132985,339.644918 C438.135961,336.759873 441.24632,333.978268 444.441586,331.29885 C448.857397,327.595686 453.368104,324.011636 457.917519,320.477738 C451.098703,313.364177 445.320628,293.746875 455.101839,291.100683 C469.544843,287.206311 461.330673,313.121563 460.082035,317.993916 C459.799842,317.995797 459.585076,317.899252 459.433367,317.708671 C459.489556,318.163809 459.556982,318.650919 459.643762,319.143044 C468.349272,312.416915 477.170904,305.838109 485.730322,298.932684 C485.022344,298.349656 483.960377,296.208128 483.098192,295.052731 C481.152189,292.447915 479.301706,289.736524 478.002497,286.740516 C475.95036,282.006084 474.123601,274.530169 480.346817,272.134741 C487.115063,269.524283 489.821487,278.013287 489.607346,282.981557 C489.458758,286.417657 488.352464,289.631203 487.688812,292.972013 C487.481538,294.013939 487.819919,298.77721 486.496362,296.6664 C486.524457,297.420574 486.505727,297.964733 486.452036,298.348402 C487.98911,297.102103 489.515571,295.840758 491.033291,294.569382 C490.975229,294.395728 490.935273,294.207655 490.935273,293.991997 C490.935273,292.507472 492.454866,292.015346 493.476877,292.50371 C495.481566,290.789108 497.468775,289.050684 499.424143,287.274018 C503.568375,283.510043 507.775663,279.635733 511.959852,275.673028 C511.138247,274.888762 511.534066,273.883196 510.770523,273.056301 C510.008229,272.231286 508.448679,271.715338 507.542168,270.938595 C505.262153,268.983886 503.431649,266.214193 502.144303,263.51534 C500.01912,259.056122 497.455664,249.801033 504.436179,248.094581 C511.63146,246.332334 514.76804,255.276475 514.936606,260.774485 C514.969695,261.839607 513.674857,271.35361 512.885093,274.791591 C520.62915,267.425385 528.267697,259.762024 535.235101,251.923127 C533.253512,251.80088 527.845658,247.444474 526.767458,246.276539 C524.136576,243.427855 520.04229,237.223316 525.068685,234.316956 C529.537563,231.739724 534.651987,236.07983 536.293323,240.123406 C536.563029,240.789186 537.317206,246.894046 537.25852,249.612333 C540.146622,246.284689 542.911108,242.930087 545.496414,239.554798 C547.22016,237.311083 548.842142,235.000289 550.370476,232.633699 C550.043332,232.424938 549.743659,232.075121 549.465837,231.64506 C542.32175,230.04393 533.721127,218.315676 542.392923,214.84635 C546.521547,213.196947 550.692,217.266854 552.501902,220.514881 C552.872748,221.179406 553.358468,224.448121 553.758032,227.027233 C558.210678,219.15511 561.738082,210.75889 564.541276,202.107517 C563.921951,201.918816 563.415628,201.411645 563.388783,200.583496 C559.993734,198.40498 557.317277,196.598849 555.075346,192.634263 C553.68249,190.171756 551.234534,184.584097 555.763346,183.495153 C561.656921,182.078334 564.837828,191.133438 565.08381,195.524323 C565.112529,196.034002 565.03324,197.50787 564.943338,198.85761 C565.146242,198.840683 565.34977,198.854475 565.547679,198.900239 C567.165291,193.537015 568.517566,188.089784 569.652579,182.621866 C566.538474,181.436377 566.862496,164.772453 569.095686,162.514319 C574.087744,157.457654 577.012055,165.293416 576.548186,169.329469 C576.000658,174.088352 573.609515,178.318121 570.831294,182.037584 C570.533493,182.431285 570.613406,182.415612 570.571577,181.843242 C570.517261,182.122217 570.412376,182.32471 570.265036,182.467646 C570.266285,184.987828 570.390524,187.574463 570.149537,189.791848 C569.45904,196.141831 568.381465,202.50874 566.974873,208.738982 C566.632746,210.254227 566.25316,211.755052 565.837988,213.240831 C568.497588,211.205251 572.031236,209.458049 573.405987,208.925802 C576.973972,207.545971 582.434893,206.140436 585.75877,208.969059 Z M398.828432,420.868148 C398.873761,423.097495 399.167933,425.151967 399.828432,426.868148 C399.367285,424.929454 399.040736,422.92262 398.828432,420.868148 Z"
       id="Leaf-Bottom"
       fill="#F2F2F2"
       transform="translate(495.328432, 293.868148) scale(-1, 1) rotate(-3.000000) translate(-495.328432, -293.868148) " />
    <path
       d="M236.702387,42.658046 C240.299921,41.1030993 244.868643,43.3645911 242.677794,47.8588384 C240.331092,52.6714644 232.605232,52.3275425 228.248916,52.0014097 C228.686641,52.0014097 230.328887,47.5614418 230.845874,46.9046148 C232.370562,44.9669752 234.490609,43.6159186 236.702387,42.658046 Z M191.628711,130.226253 C190.334711,131.220253 191.522711,130.320253 191.628711,130.226253 Z M239.580064,65.7242363 C241.593564,67.4209568 241.545243,70.2296343 239.731407,72.038321 C237.571579,74.1915196 233.850458,73.9159102 231.081155,73.551453 C229.828473,73.38645 223.139754,72.5052251 224.789483,71.4993415 C224.664579,71.538779 224.40292,71.6366929 224.121204,71.773591 C223.9457,72.2989714 223.762904,72.8220853 223.573725,73.3424794 C223.612017,73.3674112 223.644382,73.3937029 223.685409,73.4186346 C223.640735,73.3964227 223.609737,73.3733041 223.570534,73.3510922 C221.675556,78.5523133 219.11002,83.4652324 215.850221,88.0168674 C216.99988,87.6360912 218.184184,87.3641083 219.375326,87.277527 C222.902711,87.0205031 230.131615,90.0998037 225.967405,94.5168072 C221.974595,98.7511287 216.374907,93.6954186 212.144142,92.8187268 C207.704141,98.3223023 202.852506,103.565681 197.791635,108.614591 C198.079733,108.720665 198.326805,108.923292 198.458547,109.225646 C200.427372,108.361647 202.498765,107.086954 204.293455,106.805904 C206.883152,106.401103 212.152347,106.347613 213.968007,108.718398 C216.201227,111.633602 213.529021,113.768669 210.687694,114.158058 C206.567702,114.722876 201.332695,112.472216 197.478464,110.935059 C197.025347,110.990363 196.542144,110.834879 196.268177,110.464075 C196.182932,110.431438 196.097688,110.399253 196.014723,110.367975 C190.894591,115.387874 185.598499,120.224184 180.338876,124.950342 C180.392211,124.950342 180.445546,124.949889 180.50116,124.949889 C181.849115,124.171111 183.283682,123.549176 184.81808,123.264047 C188.367802,122.599956 192.491897,122.809836 195.203306,125.468923 C197.90423,128.116677 198.676444,132.542293 195.596706,135.198207 C189.432217,140.514568 181.466199,127.249958 178.535069,126.561388 C173.192937,131.311117 167.576837,135.716335 161.88142,140.022732 C162.510496,139.868155 163.152792,139.763895 163.81241,139.736243 C169.185996,139.506871 181.392351,146.649597 174.492572,152.695778 C168.479881,157.964542 162.428442,146.908887 158.018528,142.92343 C152.654059,146.934272 147.26315,150.91429 142.008542,155.06747 C144.785138,154.489506 147.437286,154.520784 150.326477,155.5516 C153.315956,156.619586 158.09739,159.145401 155.962178,163.107287 C153.790498,167.136261 148.00391,164.951331 145.007594,163.48081 C143.373363,162.678913 140.148665,160.090995 137.259017,158.921469 C128.850367,165.996652 121.473766,173.887332 115.705412,183.334207 C112.10418,189.232611 109.27197,195.58704 107.1673,202.159962 C105.823904,206.355299 103.242412,213.384699 103.390564,218.943578 C101.8744,207.753292 106.380499,194.641899 111.000106,184.949786 C115.247737,176.037357 121.306469,168.334346 128.288301,161.479922 C126.892938,156.460023 113.326775,148.620113 121.904547,144.468747 C126.458966,142.274751 130.779534,146.531738 131.521661,150.841308 C132.031304,153.802749 130.824207,157.427829 129.599332,160.212934 C131.791982,158.126825 134.063037,156.115511 136.396089,154.178086 C139.620332,151.500413 142.913864,148.908869 146.235659,146.353589 C141.256841,141.209937 137.037929,127.025119 144.179766,125.111718 C154.725451,122.295788 148.727804,141.034508 147.816099,144.557594 C147.610054,144.558954 147.453241,144.489145 147.342469,144.351341 C147.383495,144.68044 147.432727,145.032658 147.496091,145.388502 C153.852494,140.524994 160.293686,135.768011 166.54342,130.774857 C166.026484,130.353284 165.251079,128.804794 164.621547,127.969353 C163.200656,126.085871 161.84951,124.125327 160.900882,121.958983 C159.402495,118.535624 158.068672,113.129962 162.612607,111.397884 C167.554501,109.510322 169.53062,115.648524 169.374263,119.240966 C169.26577,121.72553 168.458,124.049172 167.973429,126.464834 C167.822086,127.218227 168.069158,130.662438 167.102751,129.13616 C167.123264,129.681486 167.109589,130.074954 167.070386,130.352377 C168.192694,129.451207 169.307252,128.539157 170.415429,127.619855 C170.373035,127.494289 170.34386,127.358298 170.34386,127.202361 C170.34386,126.128935 171.453405,125.77309 172.199635,126.126215 C173.663376,124.886426 175.114354,123.629411 176.542083,122.344745 C179.56803,119.623102 182.640018,116.821677 185.69514,113.956337 C185.095239,113.389252 185.384249,112.662151 184.826742,112.064242 C184.270146,111.467693 183.131427,111.094623 182.46953,110.532978 C180.804757,109.119573 179.468199,107.116872 178.528231,105.165394 C176.97651,101.941036 175.104781,95.2488947 180.201665,94.0149986 C185.455362,92.7407583 187.745563,99.2080601 187.868643,103.183545 C187.892804,103.95371 186.947366,110.833066 186.370713,113.31899 C192.025104,107.992657 197.602456,102.451457 202.689767,96.7833319 C201.242892,96.6949375 197.2943,93.5449213 196.507043,92.7004142 C194.586082,90.6405965 191.596603,86.1542373 195.266669,84.0527156 C198.52966,82.1891789 202.264001,85.3274091 203.462436,88.2512261 C203.659365,88.7326359 204.210034,93.1469196 204.167184,95.1124499 C206.275956,92.7063072 208.29447,90.2806724 210.182154,87.8400785 C211.440762,86.2177 212.625066,84.546818 213.740993,82.8355918 C213.502126,82.6846412 213.283317,82.4316971 213.080463,82.1207299 C207.864146,80.962989 201.584325,72.4825599 207.916113,69.9739703 C210.930664,68.7813249 213.975756,71.7241807 215.297272,74.0727537 C215.568048,74.5532569 215.922701,76.916789 216.214447,78.7816856 C219.465585,73.0895352 222.04115,67.018422 224.087926,60.7628136 C223.635721,60.6263688 223.266025,60.2596451 223.246423,59.6608292 C220.767499,58.0855945 218.81326,56.779623 217.176295,53.9129224 C216.159289,52.1323406 214.371892,48.0920335 217.678644,47.3046428 C221.981889,46.2801736 224.304456,52.8277104 224.484062,56.0026583 C224.505031,56.3711952 224.447138,57.4369151 224.381495,58.4128807 C224.529647,58.4006415 224.678255,58.4106142 224.82276,58.4437054 C226.003873,54.5656815 226.991249,50.6269148 227.819989,46.673189 C225.546198,45.8159893 225.782785,33.7666903 227.413368,32.1338858 C231.058363,28.4775281 233.193575,34.1433867 232.854876,37.061764 C232.455094,40.5028019 230.70918,43.5612505 228.680638,46.2507088 C228.463196,46.5353843 228.521545,46.5240516 228.491003,46.1101842 C228.451344,46.3119049 228.374761,46.4583224 228.26718,46.561676 C228.268091,48.3839619 228.358806,50.2542981 228.182847,51.8576377 C227.678674,56.4491636 226.891873,61.0529288 225.864838,65.5578734 C225.615031,66.6535115 225.337873,67.7387235 225.034731,68.8130563 C226.976662,67.3411751 229.556786,66.0778142 230.560572,65.6929583 C233.165768,64.6952341 237.153107,63.6789244 239.580064,65.7242363 Z M102.997012,218.484568 C103.04234,219.9708 103.336512,221.340448 103.997012,222.484568 C103.535864,221.192106 103.209315,219.854217 102.997012,218.484568 Z"
       id="Leaf-Top"
       fill="#C1DEE2"
       opacity="0.2"
       transform="translate(173.122964, 126.714073) rotate(-3.000000) translate(-173.122964, -126.714073) " />
    <g
       id="Plant-Right"
       opacity="0.7"
       transform="translate(482.000000, 208.000000)">
      <path
         d="M79.9047528,113.040378 C66.2530447,113.763024 50.2943362,123.453253 50.3969417,138.364313 C50.4717916,149.198479 51.9215094,159.856965 51.4184788,170.735674 C51.0157194,179.430065 49.1251777,187.934396 46.1884145,196.124248 C43.3645394,203.999655 36.5431303,211.167853 35.436189,219.380461 C34.7305556,224.613392 36.1801359,231.717944 38.4174204,236.528898 C41.1381257,242.378219 39.9806746,242.014971 36.3655703,247.542924 C29.2817053,258.37603 23.0341453,269.378157 19.1082064,281.839931 C13.4530146,299.789359 10.6714461,320.367962 15.4148106,338.86673 C16.0178728,341.21586 17.3353725,349.734582 20.6839214,349.987756 C24.4238591,350.27121 22.1932685,345.554422 21.8310908,343.993101 C19.5216852,334.030746 17.4849615,325.324509 17.9135797,314.914948 C19.5678962,274.751412 45.2035015,245.709474 60.1509621,210.198324 C60.9846805,208.360426 62.6955789,204.012856 63.9005736,201.136619 C65.8029769,196.595678 67.3104972,188.177093 70.1621387,184.658557 C75.5325909,178.03009 71.2830113,190.667575 70.3556501,193.092328 C69.1832784,196.159421 67.8821244,199.424932 66.6353083,202.135537 C60.9464558,214.690583 54.5660296,228.413437 48.6881887,241.356913 C80.3924105,245.15732 98.2859955,205.641673 104.022858,180.295993 C108.749645,159.413931 111.985935,111.412785 79.9047528,113.040378"
         id="Leaf-Me-Alone!"
         fill="#69A1AC"
         transform="translate(60.000000, 231.500000) scale(-1, 1) rotate(6.000000) translate(-60.000000, -231.500000) " />
      <path
         d="M210.80537,78.1211996 C187.982635,79.932006 173.33094,94.991753 166.510526,116.055531 C162.834567,127.406956 162.413232,139.068178 160.370472,150.73361 C157.297501,168.284374 150.685653,181.584667 137.763871,194.088576 C133.761608,197.961058 130.812263,201.937087 128.715679,206.190925 C124.553629,210.438027 120.930652,215.244115 118.268925,221.120186 C114.86881,228.624383 113.90672,237.627904 117.832452,245.109372 C118.887892,247.120537 121.521026,251.158021 124.250033,252.992399 C114.032868,274.752382 108.415067,298.584143 109.048331,322.385598 C109.430981,336.75335 110.132365,351.126994 110.950647,365.477066 C111.170985,369.330186 112.42574,375.692843 114.310394,369.230849 C116.035261,363.320262 113.872239,354.041458 113.672084,347.866532 C112.69822,317.785763 111.865642,290.435094 124.248351,262.330974 C125.546836,259.385362 126.923534,256.463322 128.357419,253.564853 C128.441517,253.516026 128.519729,253.457097 128.598782,253.399851 C128.653446,253.441944 128.703065,253.487403 128.757729,253.528654 C128.849397,253.365336 128.974704,253.17087 129.121036,252.953674 C129.532279,252.529385 129.891381,251.99313 130.232822,251.394579 C131.331152,249.872525 132.574133,248.084448 132.580861,247.105384 C132.580861,247.097807 132.576656,247.086022 132.576656,247.078445 C140.242263,234.565276 149.022178,222.741577 157.990476,211.149386 C157.923197,211.23357 167.718185,197.897078 166.203566,205.272473 C165.473588,208.826738 158.268843,215.595164 155.359024,219.35989 C148.922101,227.735396 141.3633,238.347681 135.081959,248.609759 C134.236766,249.095503 133.042563,251.480447 132.178869,253.256738 C131.702028,254.156669 131.257146,255.064177 130.819832,255.854668 C153.076582,263.208176 170.390004,248.395931 182.195796,231.167594 C182.210092,231.147389 182.222707,231.126343 182.236163,231.106139 C185.828864,226.345511 189.509028,221.618557 194.10671,217.855515 C201.777363,211.576201 209.992135,210.468334 219.036121,207.377925 C243.699779,198.951066 254.18606,166.987092 257.516373,143.269822 C261.273908,116.512653 242.894113,75.4828606 210.80537,78.1211996"
         id="path27"
         fill="#89C5CC" />
      <path
         d="M187.087285,8.28187838 C160.498481,29.1635113 144.586107,61.0733802 131.288496,91.3053591 C116.436639,125.071454 104.873047,159.852852 99.4843227,196.372108 C95.9443747,220.365462 91.8946121,244.44009 89.9250364,268.625714 C89.2249833,277.215152 88.8748455,285.868946 89.0407006,294.486685 C89.0545865,295.194866 89.4310473,314.437622 92.9380414,310.458848 C94.9325477,308.196212 92.5847722,290.502543 92.6250129,287.616161 C92.8548439,271.35938 94.6480975,255.202131 97.0075499,239.126854 C100.892071,212.659438 103.8149,186.195152 110.209077,160.179766 C111.163144,156.295431 112.0616,152.201098 113.539379,148.477679 C115.109085,144.518959 113.591965,146.130097 117.057176,144.962594 C120.424285,143.827288 124.27953,144.598829 127.821221,143.078763 C141.869801,137.048323 151.32577,117.815648 158.339102,105.310098 C166.360518,91.0095004 172.210631,75.380055 177.309925,59.8610252 C181.055021,48.4585852 184.191433,37.0431561 186.706808,25.3142977 C187.499429,21.6177491 188.064185,17.7150456 189.314089,14.1464607 C189.650899,13.1838012 190.889167,11.5711488 190.976475,10.6889811 C191.161137,8.82194319 190.19407,7.57272465 190.321563,6 C189.227765,6.73737876 188.148642,7.49851591 187.087285,8.28187838"
         id="path29"
         fill="#89C5CC"
         transform="translate(140.000000, 158.500000) rotate(-8.000000) translate(-140.000000, -158.500000) " />
      <path
         d="M38,328 C38,368.316787 70.6832133,401 111,401 C151.316787,401 184,368.316787 184,328"
         id="Base"
         fill="#89C5CC" />
      <path
         d="M116.857294,328.232365 L113,328.232365 C113.267642,323.392844 113.62115,318.561789 114.430188,313.776147 C117.524558,295.473303 127.199937,268.591213 148.420279,265.620466 C149.203131,265.50975 152.082849,265.491157 155.57117,265.695686 C157.224419,264.771923 159.076327,264.213271 161.027565,264.084806 C179.094613,262.752829 199.271153,277.328505 207.986064,292.49664 C215.01153,304.726145 213.827993,320.785081 209.488635,333.777767 C206.582823,342.476182 200.240879,354.878099 189.6648,354.998958 C176.432916,355.150242 175.794849,338.796344 175.538949,329.235863 C175.198872,316.525461 173.592762,305.452985 163.577306,296.789222 C161.24306,294.770973 158.691635,292.995286 156.33382,291.004928 C152.641788,287.889659 148.561698,284.700014 148.086094,279.546212 C147.429508,272.435859 151.443098,271.156282 157.571231,272.477271 C158.615876,272.702085 169.138923,277.424009 167.580795,273.69177 C167.105191,272.551646 165.367764,271.648167 163.174937,270.971192 C157.500522,270.354223 150.733481,269.63837 148.787294,270.066022 C127.791706,274.672159 119.617215,303.755053 117.446273,322.232845 C117.211978,324.227323 117.022514,326.228307 116.857293,328.232365 Z"
         id="path32"
         fill="#69A1AC" />
    </g>
    <g
       id="Plant-Left"
       opacity="0.5"
       transform="translate(5.1455954,14.613748)">
      <path
         d="m 178.22298,111.44452 c 4.20233,-5.99201 12.00065,-21.209747 17.91535,-23.350872 3.80961,-1.379082 2.69886,12.886462 2.74591,15.606592 0.18321,10.52375 -0.84131,20.98076 -2.10651,31.41615 -2.2794,18.82018 -9.7328,35.58098 -19.95571,51.59889 -5.26049,8.24219 -11.43062,16.58432 -19.97655,21.72705 -3.9337,2.36833 -8.66693,2.76487 -12.5517,4.80538 -4.52439,2.37542 -2.06042,0.45514 -4.0994,5.16978 -2.83157,6.54564 -3.73726,14.99022 -5.04739,21.97466 -6.01543,32.06236 -20.57868,201.55236 -18.05397,234.16591 0.22424,2.89072 -3.8065,3.582 -4.00772,0.053 -1.0695,-18.71157 8.18515,-148.28891 12.85427,-190.66443 4.66913,-42.37551 9.39407,-79.81216 14.13176,-94.47276 5.74753,-17.78643 16.12789,-39.17598 24.76882,-55.76259 4.01364,-7.70577 8.38859,-15.14607 13.38284,-22.26679 z"
         id="Leaf"
         fill="#69a1ac" />
      <path
         d="m 209.41413,319.27776 c 10.93504,-8.02806 22.77139,7.1233 12.87631,15.1526 -5.47023,4.43811 -11.18905,2.85935 -14.40858,-0.83916 -2.08999,2.54759 -4.04615,5.21134 -5.92577,7.46129 -5.72671,6.85601 -11.13932,13.87566 -16.31221,21.05899 -10.74587,14.92318 -19.95489,30.68921 -29.58357,46.16694 -9.50225,15.27568 -18.92852,30.6296 -27.54124,46.2923 C 121.22288,467.84083 111.49799,483.45204 109,498 c 3.79011,-30.8537 18.17186,-60.50956 35.29802,-87.70946 16.9868,-26.97645 36.48113,-56.43773 62.78301,-77.72696 -2.67689,-3.93654 -2.7512,-9.55565 2.3331,-13.28582 z"
         id="path36"
         fill="#c1dee2" />
      <path
         d="m 1.9131966,244.03077 c 6.119244,1.19672 16.1180194,15.0394 21.1621014,20.31357 5.994552,6.26762 11.433099,12.948 16.559569,19.94738 11.036241,15.06587 20.906218,31.08402 29.299057,47.78814 13.682523,27.23106 24.644004,55.18469 32.599216,84.8378 4.86968,18.15173 8.02259,36.9653 9.89118,55.64749 0.35289,3.52335 4.04688,30.6877 -1.27593,31.41986 -4.78731,0.65926 -3.30869,-20.62645 -3.53964,-23.52183 -2.61068,-32.66531 -10.431516,-64.44839 -21.310229,-95.23708 -2.369539,-6.70702 -4.570926,-14.92193 -8.360379,-20.9576 -2.728937,-4.3474 -0.01957,-2.83132 -4.815318,-4.47661 -4.117914,-1.41358 -8.809691,-1.06816 -13.026528,-2.7985 C 49.935634,353.23666 42.600572,345.94373 36.170888,338.60791 23.675758,324.35137 13.774003,308.92804 8.6126365,290.66039 5.7494672,280.53158 3.1183607,270.34385 1.6582582,259.90183 1.2805551,257.20288 -2.0281623,243.25997 1.9131966,244.03077 Z"
         id="path38"
         fill="#69a1ac" />
      <path
         d="m 26.061363,13.716032 c 23.049925,39.97438 41.991409,83.885187 54.222062,128.360198 7.410316,26.94692 12.592572,54.59843 17.741556,82.05019 7.972269,42.50563 15.513129,85.00798 17.658149,128.26863 2.15802,43.51136 6.42537,93.69661 -7.8223,135.60495 7.11678,-42.54835 0.34113,-87.83776 -0.85857,-130.65018 -0.5733,-20.43796 -2.23463,-40.67609 -4.41399,-60.99462 -2.11485,-19.71006 -5.56991,-39.32627 -8.787353,-58.88141 -1.567275,-9.52371 -3.213268,-19.03309 -4.889117,-28.53726 -0.500299,-2.83558 -0.711635,-11.24975 -2.510362,-13.18686 -1.810375,-1.94987 -11.04715,-2.74476 -13.947069,-4.17545 -5.839442,-2.8816 -11.332225,-6.9747 -16.19348,-11.29958 C 46.941798,171.98395 38.834658,161.15116 32.435855,150.47249 17.630684,125.76373 11.711583,95.610044 12.010759,66.994155 12.068241,61.438242 21.003398,1.6099513 17.414895,0.78606626 17.630954,0.53302938 17.835328,0.27176118 18.028036,0 c 2.716804,4.5487845 5.382776,9.1283956 8.033327,13.716032 z"
         id="path40"
         fill="#89c5cc" />
      <path
         d="m 274.84616,157.88729 c 0.35565,-0.51299 2.67039,-4.08063 1.50476,-3.85262 2.37326,-0.46423 -3.26427,3.93473 2.64908,1.23555 -2.8077,2.65169 -1.18728,6.09627 -1.14981,9.66516 0.0611,5.79428 -0.90833,11.54105 -1.99963,17.21101 -1.72443,8.96248 -4.29337,17.67663 -8.02213,26.01281 -8.12696,18.16643 -21.92695,35.65495 -38.3101,47.01247 -8.08791,5.60766 -16.01442,7.51687 -25.23869,10.09842 -5.82643,1.63094 -6.28848,4.64487 -9.38117,10.29877 -6.43874,11.77587 -12.76281,23.50939 -18.44121,35.68258 -6.78038,14.53607 -13.3625,29.08816 -19.57135,43.88012 -20.91649,49.82593 -37.94057,101.44633 -46.8811,154.86844 -0.2189,-31.48149 7.06382,-63.90472 16.25028,-93.91181 6.69178,-21.86249 15.40322,-42.93727 24.69483,-63.79869 2.25154,-5.05393 5.66355,-11.55499 6.61971,-17.13474 0.6695,-3.90946 -1.37737,-7.6692 -2.31453,-11.78751 -3.6536,-16.03744 -3.3921,-34.00454 -0.1837,-50.12774 3.53751,-17.77887 13.76783,-26.03066 31.07373,-28.54892 6.32911,-0.92115 14.37358,-0.58355 20.17707,-3.28216 6.32281,-2.93871 8.93106,-12.59819 12.52644,-18.79882 9.65708,-16.65621 21.13108,-32.63053 34.3064,-46.66476 3.64812,-3.88626 7.57134,-7.4716 11.73343,-10.79476 2.62461,-2.09674 8.16903,-4.67991 9.95769,-7.2628 z"
         id="path42"
         fill="#89c5cc" />
      <path
         d="m 80.791453,476 h 61.417097 c 2.76142,0 5,2.23858 5,5 0,0.24414 -0.0179,0.48795 -0.0535,0.72948 l -4.74699,32.18846 C 140.96096,523.73048 132.54074,531 122.62207,531 h -22.24414 c -9.918669,0 -18.33889,-7.26952 -19.785992,-17.08206 l -4.746984,-32.18846 c -0.402883,-2.73187 1.48514,-5.2731 4.217016,-5.67598 C 80.303499,476.01788 80.547312,476 80.791453,476 Z"
         id="path44"
         fill="#c1dee2" />
    </g>
    <g
       id="Maceta"
       transform="translate(22.255955,474.01764)"
       fill="#f2f2f2">
      <path
         d="M 15.417722,48.455696 C 15.417722,69.743127 17.097605,87 39.64557,87 62.193534,87 63.873418,69.743127 63.873418,48.455696"
         id="path47" />
      <path
         d="m 46.353417,35.174166 c -0.826498,1.429039 -1.563454,2.886658 -2.214403,4.36616 -0.02297,-3.046978 0.145506,-6.116285 0.605588,-9.22757 0.78644,-5.32942 1.987602,-10.631153 3.116306,-15.924401 0.811181,-3.803922 0.75993,-10.6365118 3.838533,-13.66785967 0.844171,-0.65512482 1.047409,0.63011667 1.047409,1.18788827 0.0106,0.1178957 -0.0024,-2.27663696 -0.821786,-1.85953635 C 47.054438,2.5644016 45.476257,10.47413 43.916926,14.434352 41.641847,20.214813 39.706085,26.123887 38.909041,32.137906 38.707571,33.657153 38.598,35.175953 38.572669,36.692073 38.407134,36.286584 38.251613,35.877968 38.079598,35.473818 35.268443,28.880592 31.474681,22.447239 26.743081,16.51405 25.578443,15.054198 10.934166,0.64948999 9.7877898,2.8542284 c 0.1131059,0.320194 0.3499212,0.5859058 0.7110362,0.7971355 0.02121,0.024115 0.0218,0.010718 0.0094,-0.025008 0.860077,1.3892933 3.305404,3.5350839 4.067102,4.7524461 1.916911,3.0635011 3.406728,6.3145641 4.920699,9.5035521 3.198778,6.739256 6.166042,13.546392 9.042586,20.367818 0.6698,1.588912 1.367875,3.168893 2.08009,4.743961 C 23.276854,32.404511 13.482585,22.790655 0,17.28707 c 4.6049445,2.34273 7.624049,6.750421 10.733874,10.125185 3.750759,4.070527 7.70122,8.031642 11.459048,12.097704 4.43234,4.796656 9.647586,9.847861 13.910856,15.155846 4.129546,8.669798 8.142451,17.348974 10.61959,26.462666 -1.015008,-3.148797 -0.07953,-7.500219 -0.25331,-10.80487 -0.137848,-2.630324 -0.445355,-5.239213 -0.866557,-7.843189 0.520759,1.174491 0.969648,2.349875 1.172885,3.44309 -0.185564,-1.833635 -0.399405,-3.655659 -0.629152,-5.468305 0.589683,-1.696983 1.168762,-3.280536 1.55992,-4.584981 2.004686,-6.691472 4.391693,-13.267729 7.642311,-19.677413 3.007912,-5.92917 6.458233,-11.782869 10.217828,-17.457938 1.753732,-2.645954 3.531616,-5.282083 5.298308,-7.922679 C 72.021991,9.0834965 73.123007,6.3156276 74.733,4.6592826 64.326073,14.174 52.955978,23.757489 46.353417,35.174166"
         id="Fill-27" />
    </g>
    <g
       id="Top-Leaves"
       transform="translate(495.000000, 0.000000)"
       fill="#F2F2F2">
      <path
         d="M211.459988,136.913619 C211.697988,126.527619 207.442988,116.955619 202.732988,107.921619 C193.563988,90.3346193 188.977988,79.8126193 190.459988,58.9256193 C191.331988,46.6416193 192.373988,33.6626193 186.103988,22.5076193 C181.538988,14.3846193 171.962988,5.69461932 161.850988,7.16361932 C145.843988,10.8096193 136.907988,26.0616193 133.481988,41.2056193 C129.235988,59.9756193 134.097988,73.9796193 148.271988,86.0066193 C156.258988,92.7816193 160.763988,99.7606193 162.941988,110.078619 C164.684988,118.329619 164.189988,127.791619 167.170988,135.726619 C171.627988,147.588619 179.674988,154.832619 191.778988,157.035619 C187.410988,133.523619 181.274988,109.229619 171.435988,87.4316193 C170.552988,85.2746193 164.205988,76.0546193 166.846988,73.7256193 C169.755988,71.1616193 174.556988,85.9036193 174.518988,85.8116193 C177.307988,92.3626193 179.660988,99.1256193 181.922988,105.916619 C181.910988,105.918619 181.897988,105.917619 181.884988,105.919619 C184.219988,112.892619 186.494988,119.937619 188.667988,127.028619 C189.511988,130.003619 190.301988,132.995619 191.003988,136.027619 C192.033988,140.476619 192.155988,152.193619 195.076988,155.672619 C195.701988,156.416619 196.337988,156.925619 196.978988,157.258619 C198.148988,162.164619 199.240988,167.081619 200.197988,172.008619 C202.696988,184.876619 204.141988,198.075619 202.521988,211.160619 C202.048988,214.979619 197.189988,228.261619 198.799988,231.652619 C201.742988,237.854619 203.397988,228.290619 204.025988,225.445619 C209.218988,201.883619 207.341988,179.762619 201.675988,156.694619 C206.884988,153.106619 211.362988,141.121619 211.459988,136.913619"
         id="path51"
         transform="translate(171.734760, 120.352443) rotate(-18.000000) translate(-171.734760, -120.352443) " />
      <path
         d="M115.85853,100.65925 C108.257019,101.771171 101.081536,111.378886 97.541036,117.784796 C93.1599315,125.711405 90.104439,134.755685 87.8025125,143.463054 C84.0100599,157.806497 83.4975663,173.726407 83.4506116,188.416535 C83.4448854,190.186755 83.0755464,211.810007 85.6036573,211.455273 C88.1082908,211.103988 86.5221374,188.659157 86.7357241,184.011394 C87.1903832,174.09264 86.510685,164.31072 88.8372342,154.517877 C91.2456677,144.377773 95.6617019,134.821802 101.24187,126.063265 C101.958215,124.939269 103.473937,120.760077 105.195801,121.725391 C106.879872,122.669432 102.214748,128.236513 101.552229,129.318538 C98.8168301,133.786922 96.4416084,138.518625 94.4746637,143.379689 C90.7892908,152.487211 88.8744544,162.017885 88.9397329,171.831426 C94.724898,172.719698 99.7650864,169.33219 101.705691,163.687492 C103.382318,158.808606 103.546087,153.133437 105.450616,148.52017 C106.762485,145.343087 108.849107,142.644924 111.400695,140.363587 C118.131826,134.346332 125.159001,132.841156 127.165456,122.85456 C128.738439,115.02569 126.785237,99.0684087 115.85853,100.65925"
         id="path53"
         transform="translate(105.535828, 156.004078) scale(-1, 1) rotate(58.000000) translate(-105.535828, -156.004078) " />
      <path
         d="M2.35176464,80 L3.05533376e-13,80 C0.164757456,77.0154001 0.379352103,74.0356557 0.883673399,71.0844844 C2.77417712,60.0223263 8.68534409,43.7749092 21.6499002,41.9794028 C22.1281833,41.9124864 23.8875448,41.9012485 26.0187329,42.0248651 C27.0287844,41.4665469 28.1602067,41.1288998 29.3523143,41.0512563 C40.3903669,40.2462156 52.7172123,49.0556901 58.0415826,58.2232442 C62.3337871,65.6147029 61.6107055,75.3206535 58.9595774,83.1733759 C57.1842731,88.4306594 53.3096661,95.9263239 46.8482165,95.9993701 C38.7642046,96.0908055 38.3743782,86.2065813 38.2180362,80.4282689 C38.0102659,72.7461579 37.0290143,66.0540017 30.910077,60.8176615 C29.4839707,59.597841 27.9251794,58.5246237 26.4846732,57.3216599 C24.2290287,55.4388046 21.7362997,53.5109978 21.4457299,50.3960624 C21.0445893,46.0985958 23.4966899,45.3252255 27.240669,46.1236256 C27.878894,46.2595018 34.3079438,49.1134119 33.3560062,46.8576634 C33.0654364,46.1685771 32.0039566,45.6225184 30.6642498,45.2133575 C27.1974692,44.8404643 23.0631495,44.407806 21.8741275,44.6662772 C9.04688492,47.450206 4.05268426,65.0277791 2.72634882,76.1956755 C2.5761854,77.4602545 2.45616417,78.7291607 2.35176454,80 Z"
         id="path55"
         transform="translate(30.552422, 68.500000) scale(-1, 1) translate(-30.552422, -68.500000) " />
    </g>
  </g>
  <g
     id="humaaans/sitting-2"
     stroke="none"
     stroke-width="1"
     fill="none"
     fill-rule="evenodd"
     transform="translate(76.17955,268.97249)">
    <g
       id="A-Human/Sitting"
       transform="matrix(-1,0,0,1,340,24)">
      <g
         id="Head/Front/Rad"
         transform="translate(82)">
        <g
           id="Head"
           stroke-width="1"
           transform="translate(54,31)"
           fill="#b28b67">
          <path
             d="M 8.2622739,34.490127 C 3.6543643,29.081376 0.53563479,22.452877 1.0567763,15.025454 2.5583302,-6.3750206 32.348531,-1.6671889 38.143341,9.1339329 43.938152,19.935055 43.249578,47.332996 35.760301,49.263458 32.773588,50.033323 26.411001,48.147461 19.935372,44.244306 L 24,73 H 0 Z"
             id="path196" />
        </g>
        <path
           d="m 95.406618,38.901701 c 0.775178,-0.768184 1.198019,-1.864637 1.563794,-2.905764 0.379857,-1.081528 0.748946,-2.174199 1.001141,-3.299907 0.50393,-2.249226 0.508716,-4.835876 -1.095852,-6.582399 -1.28684,-1.400542 -3.217697,-2.028722 -4.999723,-2.165244 -1.18725,-0.09105 -2.406622,0.07523 -3.544722,0.449368 -1.129171,0.371156 -2.102516,1.110881 -3.197171,1.57 -0.04179,-2.423858 -0.456989,-4.960058 -1.68667,-7.029677 -1.183293,-1.991307 -3.069878,-3.108756 -5.218415,-3.404387 -2.205234,-0.303393 -4.382857,0.212643 -6.357066,1.28024 -0.494266,0.267371 -0.983929,0.54748 -1.452515,0.864505 -0.392375,0.265481 -0.800305,0.585193 -1.260699,0.693156 -0.513227,0.120502 -0.767631,-0.175926 -1.101191,-0.550365 -0.391087,-0.43902 -0.831692,-0.825699 -1.297977,-1.168495 -2.061741,-1.515472 -4.766856,-2.138576 -7.155438,-1.230189 -1.100547,0.418521 -2.170719,1.12929 -2.917364,2.108724 -0.665556,0.873063 -1.140309,2.257983 -2.058888,2.866261 -0.389798,0.258217 -0.665096,-0.08388 -1.02001,-0.336727 -0.533107,-0.379913 -1.041547,-0.799131 -1.581097,-1.168695 -0.757874,-0.51922 -1.578429,-0.907591 -2.457154,-1.110881 -1.286379,-0.297621 -3.064079,-0.227868 -3.431879,1.456962 -0.138063,0.632856 -0.03221,1.309694 0.01243,1.947326 0.06121,0.87555 0.125085,1.750802 0.201112,2.625059 0.05771,0.663802 0.130699,1.304917 0.255968,1.956779 0.06682,0.347474 0.275942,0.995256 0.126926,1.343227 -0.186201,0.434939 -1.045597,0.187668 -1.412753,0.202793 -0.725199,0.02995 -1.453435,0.157119 -2.123961,0.46698 -0.519669,0.240206 -1.066031,0.593451 -1.285367,1.189092 -0.134842,0.365883 -0.09931,0.741716 -0.03562,1.118146 0.0764,0.451755 -0.01095,0.691365 -0.06802,1.1472 -0.973989,-0.479617 -4.34917,-1.545223 -4.773852,0.200305 -0.141376,0.581213 0.180587,1.23795 0.426247,1.728115 0.430849,0.859729 0.99571,1.645525 1.573182,2.394903 1.204554,1.563333 2.642619,2.911735 4.189845,4.064906 -1.812768,0.805896 -2.285956,3.182987 -0.716455,4.599251 0.692984,0.625294 1.624725,0.764502 2.498849,0.724501 0.319938,-0.01463 0.78116,-0.137617 1.032895,-0.08189 0.135486,0.02995 0.280544,0.14478 0.468218,0.157617 1.233639,0.08448 2.626235,-0.212744 3.832169,-0.486484 2.148813,-0.487776 4.183126,-1.505819 5.844392,-3.056316 0.426155,-0.397724 0.778216,-0.626687 1.351821,-0.620816 0.502642,0.0051 0.995803,0.14289 1.497984,0.155627 1.328719,0.03393 2.526738,-0.615642 3.760561,-1.047994 0.07557,1.66682 0.550227,3.5026 1.232075,5.00215 0.556025,1.222825 1.717135,1.400542 2.858088,1.507809 3.648546,0.343295 7.309977,-0.0398 10.963125,-0.03473 -3.536346,0.799329 -7.190598,1.128792 -10.695559,2.069419 -1.584319,0.425088 -0.374518,1.492884 0.302911,2.233106 1.115457,1.218945 1.944848,2.729242 2.52011,4.320337 1.72993,-2.254997 4.787658,-3.740816 7.496639,-3.048057 2.993206,0.765298 5.100876,4.813089 3.186862,7.723132 -1.111223,1.689308 -3.117923,2.341468 -4.787657,3.067262 1.302578,1.354273 1.617638,3.354436 2.401652,5.039266 0.386669,0.830872 0.92944,1.770305 1.794175,2.059867 0.319938,0.107167 0.695102,0.116322 0.947481,0.377126 0.312666,0.322896 0.387128,0.683903 0.786407,0.961424 1.593247,1.107697 4.081971,1.022321 5.494172,-0.423198 1.277083,-1.307305 0.944811,-3.376028 -0.121772,-4.701443 1.697807,-0.707685 4.790972,-1.617863 4.116211,-4.262923 3.67892,-0.244286 12.611227,-6.210845 7.673544,-10.570785 2.709803,-1.531492 5.199363,-5.274298 3.458753,-8.573607 -1.34032,-2.540579 -4.457409,-3.676237 -7.014889,-3.810968"
           id="hair"
           fill="#191847"
           transform="matrix(-1,0,0,1,140,0)" />
      </g>
      <g
         id="Bottom/Sitting/Skinny-Jeans-1"
         transform="translate(0,187)">
        <g
           id="Objects/Seat/Cube"
           transform="translate(10,42)"
           stroke-width="1">
          <g
             id="Seat"
             transform="translate(55)">
            <polygon
               id="Seat-Stuff"
               fill="#c5cfd6"
               points="0,124 27.622642,0 104.87719,0 115,124 " />
            <polygon
               id="polygon202"
               fill-opacity="0.1"
               fill="#000000"
               points="0,124 27.622642,0 51.382801,0 65.603774,124 " />
          </g>
        </g>
        <path
           d="m 257.95329,20.756126 c 8.2368,-4.945979 22.0562,1.408589 22.04671,8.482289 -0.0284,21.164496 -19.34332,120.912685 -20.35178,127.218295 -1.00845,6.30561 -11.81157,7.97116 -12.44067,0.0207 -1.00101,-12.65058 -2.86075,-56.44425 -1,-76.714718 0.76808,-8.367224 1.59526,-16.335888 2.4096,-23.445057 C 238.4819,74.620603 222.80723,100.826 201.59313,134.93378 l -11.51656,-5.26161 c 9.0436,-29.796071 16.45921,-50.831308 22.24683,-63.105706 9.90983,-21.016749 19.20191,-39.014792 23.11264,-45.354457 6.15159,-9.972297 16.85942,-6.492814 22.51725,-0.455881 z"
           id="Skin"
           fill="#b28b67" />
        <path
           d="m 208.81922,123.34011 5.1177,-101.510175 c 3.68844,-17.5525354 34.90673,-9.4064 34.89389,0 -0.0291,21.35544 -12.85729,95.126825 -12.86597,101.489325 z"
           id="LegLower"
           fill="#1f28cf"
           transform="rotate(20,228.82502,67.41963)" />
        <g
           id="Accessories/Shoe/Flat-Sneaker"
           transform="rotate(30,-87.860871,421.7147)"
           fill="#e4e4e4">
          <path
             d="M 2.6781318,25.401924 C 1.5593773,28.388411 1,30.622993 1,32.105671 1,33.908957 1.3004142,36.5404 1.9012426,40 c 2.0919386,0 20.8925424,0 56.4018124,0 1.465683,-4.845493 0.619606,-7.461418 -2.538232,-7.847777 -3.157838,-0.386358 -5.781107,-0.735209 -7.869809,-1.046552 L 21.679993,19.418883 c -0.50443,-0.224877 -1.095649,0.0017 -1.320526,0.506174 -0.0038,0.0086 -0.0076,0.01731 -0.01117,0.02605 l -1.685082,4.08759 c -2.923332,1.363957 -5.298842,2.045936 -7.126532,2.045936 -1.484954,0 -3.5356885,-0.599726 -6.1522031,-1.799176 l 5.5e-6,-1.2e-5 c -1.0041007,-0.460295 -2.1912281,-0.01945 -2.6515233,0.984647 -0.019839,0.04328 -0.038127,0.08725 -0.054828,0.131834 z"
             id="shoe" />
        </g>
        <g
           id="g212"
           transform="translate(242,126)"
           fill="#e4e4e4">
          <path
             d="M 2.6781318,25.401924 C 1.5593773,28.388411 1,30.622993 1,32.105671 1,33.908957 1.3004142,36.5404 1.9012426,40 c 2.0919386,0 20.8925424,0 56.4018124,0 1.465683,-4.845493 0.619606,-7.461418 -2.538232,-7.847777 -3.157838,-0.386358 -5.781107,-0.735209 -7.869809,-1.046552 L 21.679993,19.418883 c -0.50443,-0.224877 -1.095649,0.0017 -1.320526,0.506174 -0.0038,0.0086 -0.0076,0.01731 -0.01117,0.02605 l -1.685082,4.08759 c -2.923332,1.363957 -5.298842,2.045936 -7.126532,2.045936 -1.484954,0 -3.5356885,-0.599726 -6.1522031,-1.799176 l 5.5e-6,-1.2e-5 c -1.0041007,-0.460295 -2.1912281,-0.01945 -2.6515233,0.984647 -0.019839,0.04328 -0.038127,0.08725 -0.054828,0.131834 z"
             id="path210" />
        </g>
        <path
           d="M 282.77037,36.433028 C 282.77037,63 270.1536,124.97029 270.14562,130.82011 L 243,130.84096 c 3.97328,-55.295479 5.38217,-83.241067 4.22668,-83.836762 -1.73323,-0.893542 -71.05084,6.920833 -91.84032,6.920833 C 125.40783,53.925031 113.00631,35.020397 112,0 h 59.38636 c 12.09159,1.2938669 75.16246,14.015257 98.58574,18.388413 10.0279,1.872223 12.79827,10.726098 12.79827,18.044615 z"
           id="Leg-and-Butt"
           fill="#2b44ff" />
      </g>
      <g
         id="Body/Pointing-Forward"
         transform="translate(22,82)">
        <path
           d="m 158.63804,42.700233 34.70978,-19.010411 c 5.77202,-6.8543 11.45908,-12.177624 17.06116,-15.9699721 1.71181,-0.7146548 4.70534,-1.1472149 1.90582,3.8216571 -2.79952,4.968872 -5.52073,10.321284 -4.09448,11.852086 1.42624,1.530802 4.98272,-0.607661 6.6842,1.93578 1.13433,1.695627 -4.94162,4.37424 -18.22784,8.035839 l -25.22089,23.09243 z M 213,58.73984 228.24652,50.364207 c 2.13931,-8.140296 4.69658,-12.235954 7.67183,-12.286975 2.28561,-1.063471 -1.69476,9.222553 2.63803,8.330551 4.33279,-0.892003 14.90791,-8.757094 16.73005,-7.160183 2.69575,2.362526 0.29205,9.616852 -2.54007,13.225491 -5.29323,6.744541 -9.67579,9.05097 -20.50798,12.071254 -5.66363,1.57916 -11.78702,4.74445 -18.37016,9.495871 z"
           id="path216"
           fill="#997659" />
        <path
           d="m 142.85799,34.750302 c 12.02801,1.775014 28.4423,1.775014 47.24557,-6.364152 l 4.33989,16.026157 c -13.63764,9.829249 -31.73074,16.814209 -46.15576,14.112389 -11.36771,-2.129183 -15.01597,-16.865151 -5.4297,-23.774394 z"
           id="Sleeve"
           fill="#2026a2"
           transform="rotate(-9,165.89828,43.74806)" />
        <path
           d="m 158.10427,62.761234 c 12.90679,3.218871 34.55068,-0.577067 64.93166,-11.387813 7.53574,15.590098 11.01933,26.704642 10.45075,33.343633 -26.06241,13.613995 -48.40014,19.683776 -66.80345,20.084476 0.58483,10.91984 -0.74431,21.31032 -5.2093,30.80444 -9.17925,19.51829 -62.928872,1.44217 -81.001142,5 C 69.155401,103.85132 91.037911,88.914381 91.055518,65.396616 91.074799,39.642157 111.75441,0 114.797,0 h 27.74675 c 1.53095,19.669019 9.23665,41.345983 15.56052,62.761234 z"
           id="Clothes"
           fill="#1f28cf" />
      </g>
    </g>
  </g>
  <metadata
     id="metadata478">
    <rdf:RDF>
      <cc:Work
         rdf:about="">
        <dc:title>Scene/Plants</dc:title>
      </cc:Work>
    </rdf:RDF>
  </metadata>
</svg>
