<?xml version="1.0" encoding="UTF-8" standalone="no"?>
<svg
   width="740px"
   height="680px"
   viewBox="0 0 740 680"
   version="1.1"
   id="svg115"
   sodipodi:docname="hero.svg"
   inkscape:version="1.2.1 (ef4d3fba62, 2022-07-19, custom)"
   xmlns:inkscape="http://www.inkscape.org/namespaces/inkscape"
   xmlns:sodipodi="http://sodipodi.sourceforge.net/DTD/sodipodi-0.dtd"
   xmlns="http://www.w3.org/2000/svg"
   xmlns:svg="http://www.w3.org/2000/svg"
   xmlns:rdf="http://www.w3.org/1999/02/22-rdf-syntax-ns#"
   xmlns:cc="http://creativecommons.org/ns#"
   xmlns:dc="http://purl.org/dc/elements/1.1/">
  <defs
     id="defs119" />
  <sodipodi:namedview
     id="namedview117"
     pagecolor="#ffffff"
     bordercolor="#000000"
     borderopacity="0.25"
     inkscape:showpageshadow="2"
     inkscape:pageopacity="0.0"
     inkscape:pagecheckerboard="0"
     inkscape:deskcolor="#d1d1d1"
     showgrid="false"
     inkscape:zoom="0.79117647"
     inkscape:cx="370.33457"
     inkscape:cy="66.356877"
     inkscape:window-width="1366"
     inkscape:window-height="704"
     inkscape:window-x="0"
     inkscape:window-y="27"
     inkscape:window-maximized="1"
     inkscape:current-layer="svg115" />
  <!-- Generator: Sketch 52.4 (67378) - http://www.bohemiancoding.com/sketch -->
  <title
     id="title18">Scene/Home</title>
  <desc
     id="desc20">Created with Sketch.</desc>
  <g
     id="Scene/Home"
     stroke="none"
     stroke-width="1"
     fill="none"
     fill-rule="evenodd"
     transform="translate(5.5336742,-23.186643)">
    <g
       id="Clock"
       transform="translate(505,85)">
      <circle
         id="Clock-Frame"
         fill="#f2f2f2"
         cx="53"
         cy="53"
         r="53" />
      <circle
         id="Time"
         fill-opacity="0.1"
         fill="#000000"
         cx="53"
         cy="11"
         r="3" />
      <circle
         id="circle24"
         fill-opacity="0.1"
         fill="#000000"
         cx="11"
         cy="53"
         r="3" />
      <circle
         id="circle26"
         fill-opacity="0.1"
         fill="#000000"
         cx="95"
         cy="53"
         r="3" />
      <circle
         id="circle28"
         fill-opacity="0.1"
         fill="#000000"
         cx="53"
         cy="95"
         r="3" />
      <polygon
         id="Hand"
         fill="#afb9c5"
         points="55,52 51,52 53,17 " />
      <polygon
         id="polygon31"
         fill="#afb9c5"
         transform="rotate(135,62.213203,62.213203)"
         points="64.213203,74.213203 60.213203,74.213203 62.213203,50.213203 " />
      <circle
         id="circle33"
         fill="#c5cfd6"
         cx="53"
         cy="53"
         r="4" />
    </g>
    <g
       id="Background-Shape-2"
       opacity="0.345889"
       transform="translate(29,244)">
      <path
         d="M 0.20634055,172.38486 C 7.1011245,95.336156 377.03564,-53.375955 445.71269,19.603052 514.38974,92.58206 448.36528,229.54457 304.44354,264.61718 160.5218,299.68979 -6.6884434,249.43356 0.20634055,172.38486 Z"
         id="Background-Shape"
         fill="#f2f2f2"
         transform="matrix(-1,0,0,1,473,0)" />
      <path
         d="M 244.14437,222.44768 C 250.32043,156.99179 581.6922,30.655038 643.21021,92.65356 704.72822,154.65208 689.15682,285.05879 560.23778,314.85435 431.31875,344.6499 237.96831,287.90357 244.14437,222.44768 Z"
         id="path37"
         fill="#dde3e9" />
    </g>
    <g
       id="g44"
       transform="translate(25)">
      <g
         id="Light"
         transform="translate(0,152.67347)">
        <ellipse
           id="Hanging-Lamp-Light"
           fill="#f2f2f2"
           cx="49.5"
           cy="34.5"
           rx="42.5"
           ry="22.5" />
        <path
           d="M 99,50 C 99,22.385762 76.838095,0 49.5,0 22.161905,0 0,22.385762 0,50"
           id="Hanging-Lamp"
           fill="#dde3e9" />
      </g>
      <rect
         id="Wire"
         fill="#dde3e9"
         x="47"
         y="0"
         width="5"
         height="160" />
    </g>
    <g
       id="g54"
       opacity="0.7"
       transform="translate(115)">
      <g
         id="g50"
         transform="translate(0,113)">
        <ellipse
           id="ellipse46"
           fill="#f2f2f2"
           cx="37"
           cy="27.842106"
           rx="31.767677"
           ry="18.157894" />
        <path
           d="M 74,40.350877 C 74,18.065703 57.434536,0 37,0 16.565464,0 0,18.065703 0,40.350877"
           id="path48"
           fill="#dde3e9" />
      </g>
      <rect
         id="rect52"
         fill="#dde3e9"
         x="35"
         y="0"
         width="5"
         height="136" />
    </g>
    <g
       id="g62"
       transform="translate(524,198)">
      <path
         d="M 60,36.23565 78.567634,17.655688 c 3.12355,-3.124838 8.18887,-3.125883 11.313708,-0.0023 7.78e-4,7.78e-4 0.0016,0.0016 0.0023,0.0023 L 139.31604,67.113117 C 142.3152,70.113509 144,74.182171 144,78.424491 V 406"
         id="Body"
         stroke="#cbcbcb"
         stroke-width="8" />
      <rect
         id="Lamp-Base"
         fill="#afb9c5"
         x="114"
         y="405"
         width="59"
         height="7"
         rx="3" />
      <g
         id="Lamp-Top"
         transform="rotate(45,23.188077,59.395184)">
        <path
           d="m 33.030312,1.3839016 v 0 c 18.225397,0 33,14.7746034 33,33.0000004 v 28 H 0.03031192 v -28 c 0,-18.225397 14.77460308,-33.0000004 33.00000008,-33.0000004 z"
           id="Lamp"
           fill="#c5cfd6" />
        <ellipse
           id="ellipse59"
           fill="#f2f2f2"
           cx="33.208927"
           cy="61.4454"
           rx="33"
           ry="6.5" />
      </g>
    </g>
    <g
       id="Big-Leaf-Plant"
       transform="translate(16,371)">
      <g
         id="Big-Ass-Leaf"
         transform="translate(22)">
        <path
           d="m 25.257954,1.1730931 c 2.864577,-0.34997166 5.92195,-0.22643311 8.585923,0.904273 5.664665,2.4046422 7.274855,9.0967779 7.197175,14.5361519 -0.08375,5.854523 -1.327001,12.249142 3.124064,16.966273 2.046066,2.168664 4.591213,3.828324 6.600313,6.036809 2.146756,2.360064 3.8312,5.060447 5.078405,7.960229 2.290017,5.32635 3.413997,11.590068 1.319902,17.177445 -1.843814,4.919357 -6.482642,9.359498 -5.480304,14.953283 1.045527,5.835359 6.928778,10.296541 10.607012,14.642968 4.162722,4.918793 7.995458,11.205465 8.62509,17.655945 0.603754,6.18185 -2.087127,12.43391 -6.216765,17.10689 -8.251028,9.33738 -20.653603,13.91487 -33.159205,13.88651 -5.309538,-0.0123 -11.321013,-0.2521 -15.903002,-3.10536 -1.41613,-0.88192 -2.163229,-1.87135 -3.005079,-3.2468 -0.754808,-1.23339 -1.751904,-2.03565 -2.9060231,-2.90839 -2.5355951,-1.91693 -4.3667445,-4.50048 -5.5353381,-7.39249 -4.53790159,-11.23281 -0.910955,-25.12917 5.44108,-35.103984 C 11.136354,88.879607 12.368645,86.605463 11.637436,83.788622 10.874398,80.848181 8.9990145,78.196063 7.3402592,75.668504 5.7011454,73.170487 3.8298786,70.787414 2.5487576,68.08651 1.2069929,65.257121 0.82916271,62.294276 1.0662375,59.197745 1.5118033,53.381115 4.0227324,48.01348 7.5776615,43.335625 11.001716,38.829827 15.022128,34.518476 15.031136,28.614524 15.041029,22.357138 10.857732,16.790807 12.639878,10.428979 13.377803,7.7946614 14.859954,5.0918356 17.24855,3.512523 19.539258,1.9978462 22.563854,1.5022372 25.257954,1.1730931 Z"
           id="leaf"
           fill="#dde3e9" />
        <path
           d="m 23.38616,11.176431 c 0.05372,-0.840391 1.050589,-1.3444258 1.835348,-1.12513 1.032958,0.288796 1.013093,1.253971 0.985821,2.113865 -0.0836,2.643112 0.298967,5.211786 0.934327,7.776354 1.320526,5.332023 3.761037,10.244605 5.694534,15.366436 1.931811,5.117543 2.838644,10.401251 1.705362,15.816342 -1.068346,5.105675 -2.746751,10.079018 -3.840101,15.191138 -0.963699,4.505677 -1.98912,9.257166 -0.52153,13.75137 1.412182,4.325998 4.534324,7.849051 6.782537,11.758488 4.654059,8.092783 6.718809,17.070756 6.994978,26.309886 0.127987,4.2903 0.01273,8.62005 -0.982568,12.8279 -0.572861,2.42289 -1.34269,5.69731 -3.418944,7.37008 -0.957414,0.7714 -2.594896,1.03814 -3.400704,-0.10421 -0.756537,-1.07145 -0.09285,-2.73015 0.147326,-3.87213 1.040129,-4.94349 1.24938,-9.99553 1.000358,-15.01512 -0.241013,-4.86214 -0.815475,-9.71615 -2.345722,-14.35969 -1.420275,-4.30927 -3.577935,-8.179835 -6.117371,-11.949532 -2.587667,-3.841584 -5.277774,-7.691365 -6.346989,-12.243247 -1.086354,-4.623097 -0.2038,-9.327246 0.976295,-13.862052 1.247979,-4.796545 2.882637,-9.455491 4.572581,-14.122077 1.646909,-4.547239 2.230657,-8.849736 1.321495,-13.608951 C 27.567185,29.79353 22.759802,20.968117 23.38616,11.176431 Z"
           id="middle-thing"
           fill="#c5cfd6" />
      </g>
      <g
         id="g71"
         transform="translate(32,11)">
        <path
           d="m 90.892332,1.5822735 c 3.544849,1.0763313 7.065551,2.8129454 9.592478,5.5360062 5.3731,5.7906783 3.72448,14.5426293 0.75833,20.9349653 -3.192704,6.880146 -8.030873,13.79582 -5.303506,21.689966 1.253562,3.629129 3.361537,6.915929 4.550696,10.572919 1.27049,3.907864 1.81886,7.977693 1.74899,12.055875 -0.12934,7.490399 -2.12178,15.482756 -7.531222,21.001138 -4.762797,4.858567 -12.550578,7.696367 -14.331595,14.833167 -1.858048,7.44495 2.684418,15.78146 4.701271,22.83516 2.282577,7.98264 3.455107,17.41129 0.784125,25.36735 -2.559348,7.62491 -9.020086,13.6189 -16.333705,16.99695 -14.61303,6.75026 -31.579522,5.71163 -46.232376,-0.82761 -6.221066,-2.77669 -13.145187,-6.18758 -17.011289,-11.94557 -1.1948325,-1.77968 -1.5481296,-3.33847 -1.8085239,-5.40307 -0.2333974,-1.8513 -0.9788477,-3.31879 -1.871218,-4.95131 C 0.6439959,146.69213 -0.13819652,142.68415 0.01976625,138.65605 0.6344858,123.01112 12.233624,108.46374 24.956247,99.971732 27.97076,97.959918 30.618144,95.911522 31.249382,92.19986 31.908618,88.325468 31.110785,84.213388 30.501199,80.361309 29.899036,76.554385 28.963825,72.762625 28.888791,68.901998 28.810539,64.857873 29.933429,61.157378 31.848202,57.618672 35.445256,50.971566 41.227457,45.929903 47.869576,42.247103 54.267249,38.699698 61.261614,35.69249 64.392784,28.715007 67.711803,21.320006 65.747355,12.560873 71.200258,5.9643208 73.458172,3.232793 76.6252,0.8074086 80.261553,0.18227321 83.74893,-0.41734572 87.558444,0.56999666 90.892332,1.5822735 Z"
           id="path67"
           fill="#dde3e9" />
        <path
           d="m 83.651254,13.810881 c 0.502947,-0.967065 1.932574,-1.041471 2.735348,-0.370458 1.056598,0.883407 0.527882,2.015989 0.04564,3.020013 -1.482019,3.086249 -2.379962,6.328677 -2.980162,9.69874 -1.248415,7.006497 -0.967551,14.103295 -1.389132,21.182151 -0.421306,7.072894 -2.128153,13.805346 -6.289332,19.624101 -3.923201,5.486369 -8.490443,10.496275 -12.446255,15.977171 -3.486601,4.830679 -7.174114,9.920106 -7.811779,16.011509 -0.614359,5.863162 1.191274,11.671702 1.772655,17.479742 1.203632,12.02309 -1.084037,23.73733 -5.59988,34.82338 -2.097284,5.1478 -4.499654,10.21483 -7.867225,14.67625 -1.938782,2.56902 -4.553852,6.04322 -7.857707,6.93595 -1.523515,0.41171 -3.577935,-0.13066 -3.921891,-1.90583 -0.323484,-1.66537 1.321277,-3.2818 2.200204,-4.5083 3.805263,-5.30908 6.695828,-11.18222 9.033534,-17.25711 2.264607,-5.88424 4.135056,-11.93362 4.777666,-18.23471 0.596138,-5.8476 0.100281,-11.56216 -0.894815,-17.35736 -1.013845,-5.90561 -2.143181,-11.87462 -1.009485,-17.825529 1.150953,-6.044224 4.646615,-11.152472 8.401506,-15.904226 3.971347,-5.026135 8.322777,-9.686651 12.742855,-14.327235 4.307252,-4.521808 7.243163,-9.311017 8.672595,-15.423566 2.82431,-12.076257 1.825092,-25.047316 7.685656,-36.314683 z"
           id="path69"
           fill="#c5cfd6" />
      </g>
      <g
         id="g77"
         transform="translate(0,57)">
        <path
           d="m 13.305977,0 c 5.894289,0 11.076355,3.1243612 14.647112,7.5579337 4.179911,5.1901263 5.024124,11.5283023 6.721448,17.7140093 0.844584,3.078366 2.297208,6.134279 4.842824,8.225758 2.315375,1.902068 5.254734,2.282699 8.02614,3.212004 5.538734,1.85716 10.011171,6.330933 11.777456,11.789782 2.154838,6.658689 -0.12754,13.373874 0.265462,20.122017 0.360746,6.197295 6.471187,10.063724 11.38742,13.034529 4.847644,2.929518 9.214786,5.6718 10.674826,11.37873 1.54828,6.052793 2.06771,12.808907 -0.07675,18.788177 -3.570386,9.9558 -14.019421,14.33976 -24.115867,15.01953 -9.16288,0.61676 -20.684144,-0.35166 -27.565387,-7.00274 -4.117624,-3.98015 -5.608807,-9.54656 -5.4238,-15.08472 0.114935,-3.44379 0.797127,-6.855703 1.679157,-10.183599 0.625096,-2.358753 1.46968,-4.707366 1.710301,-7.144708 C 28.495877,80.942214 22.502596,79.696743 17.400984,77.91636 10.918304,75.65358 6.3798712,71.37972 3.2239905,65.425434 0.28500238,59.881477 -0.94813429,53.658106 0.81370139,47.554248 1.7135278,44.437492 3.3455987,41.60974 5.559016,39.204631 6.5333645,38.146035 7.9066472,37.263086 8.786082,36.150891 9.6069373,35.112214 9.4282325,33.766424 9.1453452,32.549926 7.8373157,26.930639 3.7619584,22.277597 2.3045139,16.668451 0.98869854,11.605443 1.766546,5.304207 6.395443,2.0378788 8.3953045,0.62653818 10.861578,0.01557291 13.305977,0 Z"
           id="path73"
           fill="#c5cfd6" />
        <path
           d="m 21.337691,14.641377 c 6.247316,6.654646 7.945412,15.683597 8.44377,24.434774 0.279154,4.907236 -0.0114,10.083192 1.430343,14.84303 1.233575,4.073911 4.125523,7.188104 7.106478,10.131359 6.000527,5.924899 12.692503,11.948304 14.447607,20.52311 1.029818,5.03218 0.334691,10.229866 1.757678,15.206636 1.293892,4.523714 3.571996,8.968114 6.342942,12.788144 2.231026,3.07617 5.137686,5.43128 7.576516,8.29885 0.744043,0.87533 1.809904,2.16389 1.502798,3.39957 -0.359333,1.44718 -2.202707,1.90531 -3.510575,1.67788 -3.049364,-0.52984 -5.616185,-3.44159 -7.609985,-5.5584 -2.915488,-3.09536 -5.392935,-6.42468 -7.406596,-10.15924 -2.23544,-4.14743 -4.035415,-8.54837 -4.804468,-13.201374 C 45.81609,92.198517 46.213306,87.167785 44.390896,82.535065 41.324246,74.739985 33.88602,70.139859 28.508165,64.064302 21.807729,56.49376 22.80702,47.071505 23.49332,37.758984 23.870307,32.641335 24.245087,26.862023 21.659141,22.189466 20.671988,20.405839 18.47112,18.742812 18.046688,16.715453 c -0.388756,-1.857506 1.733036,-3.734569 3.291003,-2.074076 z"
           id="path75"
           fill="#afb9c5" />
      </g>
      <path
         d="m 28,181 c 3.8e-4,38.05849 6.211229,58 39.000093,58 C 99.788957,239 105.99981,219.05849 106,181 Z"
         id="Base"
         fill="#89c5cc" />
    </g>
    <g
       id="Table"
       transform="translate(135,353)">
      <g
         id="g85"
         transform="translate(23)">
        <rect
           id="rect81"
           fill="#afb9c5"
           x="21"
           y="144"
           width="38"
           height="9"
           rx="2" />
        <path
           d="m 31,115 c 4.293146,-13.91453 6.698763,-28.581197 7.216851,-44 H 41 42.783149 C 43.301237,86.418803 45.706854,101.08547 50,115 h 6.5 c 8.560414,0 15.5,6.93959 15.5,15.5 0,8.56041 -6.939586,15.5 -15.5,15.5 h -33 C 14.939586,146 8,139.06041 8,130.5 8,121.93959 14.939586,115 23.5,115 Z"
           id="Lamp-Body"
           fill="#dde3e9" />
        <path
           d="M 4.6222222,1.678615 C 16.081481,0.55953835 27.540741,0 39,0 50.459259,0 61.918518,0.55953835 73.377778,1.678615 L 78,81.13306 C 65,82.377687 52,83 39,83 26,83 13,82.377687 0,81.13306 Z"
           id="Shade"
           fill="#c5cfd6" />
      </g>
      <path
         d="m 21,153 h 83 21 V 257 H 104 V 175 H 21 v 82 H 0 V 153 Z"
         fill="#f2f2f2"
         id="path87" />
    </g>
    <g
       id="Plant"
       transform="translate(537,328)">
      <g
         id="Succulents"
         transform="translate(13)">
        <path
           d="M 3.3809241,0.20818701 C 12.213925,21.197225 27.229201,35.780534 35.181895,57.604883 c 4.715872,12.942481 6.681657,27.014623 6.800889,41.427065 0.06478,7.828302 -0.07149,15.661642 -0.108135,23.489952 -0.03561,7.6341 -0.24311,15.21939 -0.891145,22.80468 -0.651133,7.62549 -1.380205,15.16016 -1.701771,22.83268 -0.250336,5.9782 -0.364665,12.93171 -2.391099,18.38475 -1.611443,4.33665 -5.707152,4.97202 -6.793921,-0.28753 -0.603904,-2.92377 -0.527771,-6.1882 -0.461187,-9.1931 0.08542,-3.85528 0.309695,-7.70482 0.424023,-11.55938 0.459639,-15.4678 -0.136265,-30.93847 0.175236,-46.41237 C 30.53906,103.9731 32.482392,88.871087 30.33208,73.853431 28.556499,61.45191 24.045542,50.802498 18.861516,40.593177 13.873887,30.77082 8.4454601,21.187174 5.0749526,10.014391 4.1071575,6.8056033 3.3589874,3.4805112 3,0.0301404 3.1569118,-0.04272947 3.2838866,0.01649974 3.3809241,0.20818701 Z"
           id="Thi-Succs!"
           fill="#c1dee2" />
        <path
           d="m 0.9735884,41.616956 c 1.749076,1.263036 2.7264234,3.110621 3.9086379,4.933594 1.4701561,2.26641 3.1985575,4.312537 4.6683376,6.580587 3.0647361,4.728489 5.7573281,9.747407 8.5510381,14.667465 5.303989,9.338838 9.331037,19.292171 11.325577,30.096279 2.067466,11.196679 2.62493,22.753519 3.492138,34.117159 0.919834,12.04417 1.846059,24.17613 1.967851,36.26665 0.05451,5.41682 0.347335,11.16715 -0.302977,16.54582 -0.404848,3.34854 -1.915977,6.20237 -5.322785,6.1753 -7.236506,-0.0574 -10.633916,-8.07252 -12.053325,-14.64614 -2.089268,-9.67931 -2.506144,-19.96081 -2.17535,-29.85958 0.399585,-11.93588 2.471186,-23.69249 3.367714,-35.58243 C 19.349975,98.324781 18.813562,85.960234 14.486169,74.108861 12.299917,68.119796 9.7625731,62.274305 7.4842259,56.325031 6.5140206,53.791985 5.719362,51.190024 4.4089646,48.831317 2.9512133,46.207614 1.141617,43.825936 0,41 c 0.32440417,0.205925 0.64918424,0.41144 0.9735884,0.616956 z"
           id="path91"
           fill="#89c5cc" />
        <path
           d="M 84.334143,16.51767 C 84.556013,16.345237 84.778157,16.17284 85,16 c -0.63906,2.692657 -1.793441,4.879894 -2.675846,7.341307 -0.793195,2.21282 -1.19524,4.716918 -1.729489,7.135643 -1.254523,5.680807 -2.704238,11.233566 -3.88916,16.962767 -2.34561,11.337035 -1.901977,23.550467 -0.363621,36.128435 1.452867,11.881474 3.750594,23.744558 4.845461,35.623458 0.907575,9.85146 1.297664,20.01013 0.431948,29.40939 -0.588308,6.38337 -2.516738,14.00499 -7.771155,13.36076 -2.473676,-0.30326 -3.764071,-3.28063 -4.283949,-6.64156 -0.835078,-5.39856 -1.009889,-11.0744 -1.335393,-16.44251 -0.726441,-11.98178 -0.871147,-23.92672 -1.01458,-35.78519 -0.135802,-11.188493 -0.509697,-22.598658 0.237901,-33.50523 0.72107,-10.524215 2.976371,-20.007531 6.200961,-28.757545 1.698376,-4.609904 3.316613,-9.327675 5.224838,-13.721285 0.915118,-2.107446 2.033117,-3.969689 2.948619,-6.075472 0.736163,-1.693802 1.321803,-3.43187 2.507608,-4.515298 z"
           id="path93"
           fill="#c1dee2" />
        <path
           d="m 3.2088077,76.301822 c 0.9569139,-1.606497 3.0632575,3.691587 3.383825,4.357953 -0.1355828,-0.331467 -0.2717048,-0.662458 -0.4090306,-0.993161 1.8993856,3.158313 3.6370227,6.446115 4.7173809,10.067538 1.069067,3.584961 1.987318,7.242386 2.990427,10.852828 1.88218,6.77402 4.310256,13.35578 6.015553,20.19082 1.661619,6.66042 2.080583,13.20809 1.678335,20.0974 -0.418059,7.16029 -0.673824,14.43044 -0.18611,21.58687 0.232928,3.41795 1.343535,6.6017 2.104731,9.89224 0.762123,3.29379 1.362375,6.6315 2.263359,9.88445 0.206817,-0.42376 0.233163,0.99294 0.232716,1.10049 -0.0057,0.81267 -0.11913,1.49413 -0.380592,2.26471 -0.671865,1.98158 -1.928782,3.66503 -3.841428,4.21159 -3.456458,0.98757 -6.66573,-2.15652 -7.780374,-5.47654 -1.599025,-4.76373 -2.480153,-10.02806 -3.242198,-15.03495 -0.698638,-4.59128 -0.8639609,-9.20997 -0.656401,-13.86447 0.408865,-9.17894 2.069963,-18.23771 2.519302,-27.41385 C 13.107352,118.03572 11.128041,108.64928 9.470824,98.924826 8.6725832,94.239192 7.9097436,89.597768 6.3563044,85.133667 5.7273694,83.325991 4.9073676,81.730716 4.0475942,80.061431 3.5583829,79.111708 2.5690513,77.417615 3.2088077,76.301822 Z"
           id="path95"
           fill="#c1dee2" />
        <path
           d="m 31.252093,60.697048 c -0.396455,11.444771 -1.080071,22.802726 -2.605905,34.126898 -1.557252,11.556334 -3.345861,23.072994 -4.844234,34.639544 -1.458576,11.25896 -2.98741,22.70491 -2.783586,34.12101 0.150111,8.40896 -1.244227,22.6342 8.095001,26.78447 9.458716,4.20291 11.487652,-13.74559 12.108746,-19.66989 1.190222,-11.36621 0.804891,-22.85223 0.227262,-34.2805 C 40.856365,124.6894 39.866432,113.01993 38.639547,101.33357 37.276835,88.352823 36.207608,75.313546 35.349463,62.295875 34.92489,55.856963 34.820295,49.428659 34.937439,42.988176 35.048171,36.91067 34.817261,30.770311 32.656494,25 c -0.113217,0.0821 -0.225681,0.164204 -0.338905,0.245913"
           id="path97"
           fill="#69a1ac" />
        <path
           d="m 80.082747,96.955225 c -1.701063,2.47807 -3.415803,4.932025 -5.022237,7.556965 -2.874371,4.69638 -5.473589,9.9194 -6.255526,16.63463 -1.636349,14.05354 -0.323561,29.23214 -0.0067,43.71586 0.06481,2.95976 -0.309521,5.8302 0.857047,8.64694 1.057699,2.55424 3.035205,4.50075 4.920186,4.49034 4.035298,-0.023 3.419623,-9.90461 3.426273,-14.25411 0.01217,-7.62327 -0.842656,-15.32381 -0.769082,-22.93996 0.07346,-7.54546 0.532323,-15.11174 1.626302,-22.27797 1.107571,-7.25337 2.729563,-14.21849 4.870136,-20.718358 0.297049,-0.902013 2.428807,-7.872065 0.414762,-6.670842"
           id="path99"
           fill="#89c5cc" />
        <path
           d="m 62.262195,22 c -2.653044,0 -2.636779,13.225997 -2.71659,14.924813 -0.288226,6.130581 -0.220519,12.262802 -0.402836,18.394613 -0.399053,13.381404 -0.889265,26.880081 -2.899284,40.106899 -1.082173,7.120425 -2.336827,14.209285 -3.686422,21.275585 -1.353378,7.08681 -3.170111,14.165 -4.060511,21.34161 -0.854844,6.899 -0.37182,13.93373 -0.254562,20.86677 0.117257,6.97486 0.327942,13.96367 1.241794,20.87744 0.225437,1.7066 0.489833,3.40706 0.772764,5.10341 0.23565,1.41343 0.09834,3.16637 0.49702,4.50968 0.639242,2.1515 3.379283,2.85555 5.224386,2.51931 4.992518,-0.91153 8.181542,-7.18029 9.88707,-11.76049 2.177962,-5.84847 3.333515,-12.19228 4.473938,-18.35566 1.292101,-6.98266 2.049357,-14.07192 2.404534,-21.18087 C 73.465574,126.17518 72.538862,111.71167 71.503971,97.310071 70.928275,89.300664 70.263312,81.326522 69.24582,73.366731 68.232489,65.440974 66.932445,57.55048 66.085922,49.60135 65.470888,43.824638 64.864931,38.040135 64.466635,32.241281 64.371316,30.858609 64.291127,22 62.262195,22"
           id="path101"
           fill="#69a1ac" />
        <path
           d="M 58.940793,118.1387 C 58.508355,104.2527 52.926529,43.258908 51.656581,26.467132 51.339009,22.26417 48.281539,4.7646391 47.884912,0 c -1.075351,1.346742 -0.983458,22.309445 -0.971634,27.126194 0.0125,4.764639 -0.578385,9.450259 -0.882443,14.189271 -0.309801,4.835542 -7.458539,67.285415 -8.386253,71.931745 -1.845631,9.24352 -3.080781,18.72923 -4.033496,28.18035 -0.928052,9.21192 -2.370975,18.93041 -1.129068,28.1906 0.285477,2.13181 0.737171,4.22945 1.472654,6.18784 0.794604,2.116 1.339205,4.07269 1.977051,6.28693 1.026364,3.56654 2.883144,6.69655 5.73622,8.16887 5.849397,3.01896 8.990314,-3.81513 10.582564,-9.76506 2.542937,-9.50194 4.175052,-19.15893 4.940264,-29.13797 0.846632,-11.04047 2.09631,-22.10357 1.750022,-33.22007"
           id="path103"
           fill="#89c5cc" />
      </g>
      <g
         id="Planter"
         transform="translate(0,159)">
        <rect
           id="Vase"
           fill="#ffffff"
           x="10"
           y="0"
           width="91"
           height="91"
           rx="2" />
        <rect
           id="Leg"
           fill="#c5cfd6"
           x="0"
           y="10"
           width="10"
           height="113"
           rx="2" />
        <rect
           id="rect108"
           fill="#c5cfd6"
           x="50"
           y="10"
           width="10"
           height="113"
           rx="2" />
        <rect
           id="rect110"
           fill="#c5cfd6"
           x="101"
           y="10"
           width="10"
           height="113"
           rx="2" />
      </g>
    </g>
  </g>
  <g
     id="humaaans/standing-8"
     stroke="none"
     stroke-width="1"
     fill="none"
     fill-rule="evenodd"
     transform="translate(174.88165,133.16351)">
    <g
       id="A-Human/Standing"
       transform="translate(40,27)">
      <g
         id="Head/Front/Long"
         transform="translate(82)">
        <path
           d="m 95.762012,45.290167 c 3.447021,12.70215 7.939108,41.253613 3.355257,45.732299 h -29 c -0.003,-0.05145 -0.0059,-0.102775 -0.0087,-0.153967 C 59.359906,89.678999 51,80.56578 51,69.5 v -21 C 51,36.625878 60.625878,27 72.5,27 h 2 c 10.783298,0 19.71245,7.938538 21.262012,18.290167 z"
           id="Hair-Back"
           fill="#191847" />
        <g
           id="Head"
           stroke-width="1"
           transform="translate(54,31)"
           fill="#d4a181">
          <path
             d="M 8.2622739,34.490127 C 3.6543643,29.081376 0.53563479,22.452877 1.0567763,15.025454 2.5583302,-6.3750206 32.348531,-1.6671889 38.143341,9.1339329 43.938152,19.935055 43.249578,47.332996 35.760301,49.263458 32.773588,50.033323 26.411001,48.147461 19.935372,44.244306 L 24,73 H 0 Z"
             id="path259" />
        </g>
        <path
           d="m 68.749965,61.874834 c 1.105777,11.878006 0.662769,25.442431 -2.632696,28.662293 h -29 c -1.615794,-28.073642 14,-17.202271 14,-43.634334 0.973584,-0.951249 1.893542,-1.892768 2.803849,-2.704734 L 53.888877,43.4207 C 58.910551,33.140233 65.281398,28 73.001418,28 84.581449,28 88.236585,33.388322 91.348681,37.963086 89.021523,45.948175 79.99043,47.132187 71.965741,52.109512 71.019854,51.341004 69.813715,50.880413 68.5,50.880413 c -3.037566,0 -5.5,2.462434 -5.5,5.5 0,3.037566 2.462434,5.5 5.5,5.5 0.08377,0 0.167107,-0.0019 0.249965,-0.0056 z"
           id="Hair-Front"
           fill="#191847" />
      </g>
      <g
         id="Bottom/Standing/Skirt"
         transform="translate(0,187)">
        <path
           d="m 97.407825,98.088074 c 23.989345,6.709846 44.686635,10.064776 62.091855,10.064776 17.40522,0 33.57199,-5.16653 48.50032,-15.499576 -23.47576,-6.887051 -42.80909,-10.330576 -58,-10.330576 -15.19091,0 -32.72163,5.255125 -52.592175,15.765376 z"
           id="Skirt-Shadow"
           fill="#1f28cf" />
        <path
           d="m 180.26683,117.82433 c -0.23131,-0.34774 -0.42666,-0.72602 -0.5816,-1.13578 C 176.47864,108.20849 125.11688,16.725534 120,0 h 57.82609 c 3.89044,12.716659 21.40093,92.51976 23.86523,108.44165 7.77533,25.11507 23.78395,106.45359 25.82758,112.08848 2.14987,5.9278 -9.94672,12.10304 -13.17017,4.81554 -5.12906,-11.59564 -17.35008,-43.68057 -22.7916,-63.2714 -5.1014,-18.36637 -9.25531,-34.88977 -11.2903,-44.24994 z"
           id="Leg-3"
           fill="#ba8b72" />
        <path
           d="m 132.95706,128.99359 c -23.48175,5.93488 -109.373031,16.66409 -115.267267,18.34694 -6.06333,1.73113 -11.3797107,-10.76675 -3.885107,-13.474 11.925179,-4.3077 44.784446,-14.26082 64.707138,-18.32249 16.024608,-3.26696 30.647256,-5.9328 40.464516,-7.49388 C 118.14465,80.47344 114.34276,14.293546 116.83469,0 H 168 c -2.3896,13.706549 -22.58989,113.71771 -26.3444,123.72855 -1.1915,3.57393 -4.74668,5.15335 -8.69854,5.26504 z"
           id="path266"
           fill="#d4a181" />
        <g
           id="Accessories/Shoe/Flat-Sneaker"
           transform="rotate(80,-54.135121,84.924739)"
           fill="#e4e4e4">
          <path
             d="M 2.6781318,25.401924 C 1.5593773,28.388411 1,30.622993 1,32.105671 1,33.908957 1.3004142,36.5404 1.9012426,40 c 2.0919386,0 20.8925424,0 56.4018124,0 1.465683,-4.845493 0.619606,-7.461418 -2.538232,-7.847777 -3.157838,-0.386358 -5.781107,-0.735209 -7.869809,-1.046552 L 21.679993,19.418883 c -0.50443,-0.224877 -1.095649,0.0017 -1.320526,0.506174 -0.0038,0.0086 -0.0076,0.01731 -0.01117,0.02605 l -1.685082,4.08759 c -2.923332,1.363957 -5.298842,2.045936 -7.126532,2.045936 -1.484954,0 -3.5356885,-0.599726 -6.1522031,-1.799176 l 5.5e-6,-1.2e-5 c -1.0041007,-0.460295 -2.1912281,-0.01945 -2.6515233,0.984647 -0.019839,0.04328 -0.038127,0.08725 -0.054828,0.131834 z"
             id="shoe" />
        </g>
        <g
           id="g272"
           transform="translate(208,199)"
           fill="#e4e4e4">
          <path
             d="M 2.6781318,25.401924 C 1.5593773,28.388411 1,30.622993 1,32.105671 1,33.908957 1.3004142,36.5404 1.9012426,40 c 2.0919386,0 20.8925424,0 56.4018124,0 1.465683,-4.845493 0.619606,-7.461418 -2.538232,-7.847777 -3.157838,-0.386358 -5.781107,-0.735209 -7.869809,-1.046552 L 21.679993,19.418883 c -0.50443,-0.224877 -1.095649,0.0017 -1.320526,0.506174 -0.0038,0.0086 -0.0076,0.01731 -0.01117,0.02605 l -1.685082,4.08759 c -2.923332,1.363957 -5.298842,2.045936 -7.126532,2.045936 -1.484954,0 -3.5356885,-0.599726 -6.1522031,-1.799176 l 5.5e-6,-1.2e-5 c -1.0041007,-0.460295 -2.1912281,-0.01945 -2.6515233,0.984647 -0.019839,0.04328 -0.038127,0.08725 -0.054828,0.131834 z"
             id="path270" />
        </g>
        <path
           d="m 117,0 c 22.54684,-6.4507391 43.88017,-6.4507391 64,0 7,31.937468 24.00894,44.613474 27,93.578926 C 174,110.47272 132,81.530457 97,98.005311 87,74.961107 101,19.464518 117,0 Z"
           id="Skirt"
           fill="#2b44ff" />
      </g>
      <g
         id="Body/Long-Sleeve"
         transform="translate(22,82)">
        <path
           d="m 192,65.31079 39.48288,-5.385625 c 7.89817,-4.393139 15.16411,-7.367216 21.79781,-8.922234 1.8668,-0.0545 4.83651,0.624123 0.41246,4.312266 -4.42404,3.688143 -8.91285,7.768 -8.12462,9.736297 0.78823,1.968298 4.90253,1.235959 5.58411,4.263369 0.45438,2.018272 -6.22288,2.346221 -20.0318,0.983847 L 199.08387,83 Z m -124.030208,9.138893 21.897392,0.08218 C 65.856099,128.56567 53.336347,156.85691 52.307928,159.4056 c -2.313943,5.73453 2.582672,14.46813 4.676659,19.1615 -6.820046,3.05177 -6.093363,-8.25017 -14.696668,-4.24761 -7.852698,3.65336 -13.826226,10.27299 -22.898884,4.67488 -1.11543,-0.68825 -2.337759,-3.27966 0.615543,-5.3047 7.357754,-5.04512 17.960724,-13.875 19.393352,-16.78142 1.953644,-3.96342 11.477598,-31.44961 28.571862,-82.458567 z"
           id="Skin"
           fill="#d4a181" />
        <path
           d="m 123.47357,9.6692732 17.17924,-0.3564661 c 7.53584,37.6878339 32.55094,59.7208839 83.13765,47.0951389 l 11.10289,48.411184 C 187.48907,115.21041 143.7605,99.693528 130.59578,48.474648 127.18785,35.215699 124.20138,21.368178 123.47357,9.6692732 Z"
           id="Clothes-Back"
           fill="#afb9c5"
           transform="rotate(5,179.18346,58.59147)" />
        <path
           d="M 119.49082,0.01593955 145.4676,5.9652766 C 145.4676,50.644425 159.70002,79.150459 167,112 H 96.843654 c -0.988275,11.3509 -1.595165,23.01756 -1.911414,35 H 42.401636 C 54.305365,83.663963 79.430111,34.663963 117.77587,0 h 1.70128 z"
           id="Clothes"
           fill="#c5cfd6" />
        <path
           d="m 107.91245,48.259249 c -1.80799,27.84128 -0.74466,49.088197 3.19,63.740751 H 96.843654 C 98.801423,89.513902 102.25588,68.266989 107.91245,48.25926 Z"
           id="Shade-6"
           fill-opacity="0.1"
           fill="#000000" />
      </g>
    </g>
  </g>
  <metadata
     id="metadata531">
    <rdf:RDF>
      <cc:Work
         rdf:about="">
        <dc:title>Scene/Home</dc:title>
      </cc:Work>
    </rdf:RDF>
  </metadata>
</svg>
